<svg version="1.1" viewBox="0 10 220 220" fill="none" stroke="none" stroke-linecap="square" stroke-miterlimit="10" xmlns:xlink="http://www.w3.org/1999/xlink" xmlns="http://www.w3.org/2000/svg"><clipPath id="p.0"><path d="m0 0l800.0 0l0 600.0l-800.0 0l0 -600.0z" clip-rule="nonzero"/></clipPath><g clip-path="url(#p.0)"><path fill="#000000" fill-opacity="0.0" d="m0 0l800.0 0l0 600.0l-800.0 0z" fill-rule="evenodd"/><path fill="#ffffff" d="m206.74278 18.11811l-200.34645 0l0 200.34647l200.34645 0z" fill-rule="evenodd"/><path stroke="#ffffff" stroke-width="8.0" stroke-linejoin="round" stroke-linecap="butt" d="m206.74278 18.11811l-200.34645 0l0 200.34647l200.34645 0z" fill-rule="evenodd"/><path fill="#000000" d="m206.74278 118.291336l0 0c0 -55.324142 -44.849075 -100.173225 -100.173225 -100.173225l0 0c-26.567596 0 -52.047047 10.553934 -70.833176 29.340057c-18.786125 18.786125 -29.34006 44.26558 -29.34006 70.83317l0 0c0 55.324142 44.849083 100.17323 100.17323 100.17323l0 0c55.32415 0 100.173225 -44.84909 100.173225 -100.17323z" fill-rule="evenodd"/><path fill="#ffffff" d="m206.74278 118.291336l0 0c0 -55.324142 -27.19429 -100.173225 -60.740158 -100.173225l0 0c-16.109299 0 -31.558784 10.553934 -42.949776 29.340057c-11.390991 18.786125 -17.790382 44.26558 -17.790382 70.83317l0 0c0 55.324142 27.194298 100.17323 60.740158 100.17323l0 0c33.545868 0 60.740158 -44.84909 60.740158 -100.17323z" fill-rule="evenodd"/><path fill="#000000" fill-opacity="0.0" d="m206.74278 118.291336l0 0c0 -55.324142 -44.849075 -100.173225 -100.173225 -100.173225l0 0c-26.567596 0 -52.047047 10.553934 -70.833176 29.340057c-18.786125 18.786125 -29.34006 44.26558 -29.34006 70.83317l0 0c0 55.324142 44.849083 100.17323 100.17323 100.17323l0 0c55.32415 0 100.173225 -44.84909 100.173225 -100.17323z" fill-rule="evenodd"/><path stroke="#000000" stroke-width="1.0" stroke-linejoin="round" stroke-linecap="butt" d="m206.74278 118.291336l0 0c0 -55.324142 -44.849075 -100.173225 -100.173225 -100.173225l0 0c-26.567596 0 -52.047047 10.553934 -70.833176 29.340057c-18.786125 18.786125 -29.34006 44.26558 -29.34006 70.83317l0 0c0 55.324142 44.849083 100.17323 100.17323 100.17323l0 0c55.32415 0 100.173225 -44.84909 100.173225 -100.17323z" fill-rule="evenodd"/><path fill="#000000" d="m166.7874 118.291336l0 0c0 -55.324142 -23.020325 -100.173225 -51.41732 -100.173225l0 0c-13.636719 0 -26.71492 10.553934 -36.357536 29.340057c-9.642624 18.786125 -15.059788 44.26558 -15.059788 70.83317l0 0c0 55.324142 23.02032 100.17323 51.417324 100.17323l0 0c28.396996 0 51.41732 -44.84909 51.41732 -100.17323z" fill-rule="evenodd"/></g></svg>