<svg version="1.1" viewBox="0 10 220 220" fill="none" stroke="none" stroke-linecap="square" stroke-miterlimit="10" xmlns:xlink="http://www.w3.org/1999/xlink" xmlns="http://www.w3.org/2000/svg"><clipPath id="p.0"><path d="m0 0l800.0 0l0 600.0l-800.0 0l0 -600.0z" clip-rule="nonzero"/></clipPath><g clip-path="url(#p.0)"><path fill="#000000" fill-opacity="0.0" d="m0 0l800.0 0l0 600.0l-800.0 0z" fill-rule="evenodd"/><path fill="#ffffff" d="m6.3963256 18.11811l200.34645 0l0 200.34647l-200.34645 0z" fill-rule="evenodd"/><path stroke="#ffffff" stroke-width="8.0" stroke-linejoin="round" stroke-linecap="butt" d="m6.3963256 18.11811l200.34645 0l0 200.34647l-200.34645 0z" fill-rule="evenodd"/><path fill="#000000" d="m6.3963256 118.291336l0 0c0 -55.324142 44.849083 -100.173225 100.17323 -100.173225l0 0c26.567589 0 52.047035 10.553934 70.83317 29.340057c18.786118 18.786125 29.340057 44.26558 29.340057 70.83317l0 0c0 55.324142 -44.849075 100.17323 -100.173225 100.17323l0 0c-55.32415 0 -100.17323 -44.84909 -100.17323 -100.17323z" fill-rule="evenodd"/><path fill="#ffffff" d="m6.3963256 18.11811l99.11811 0l0 200.34647l-99.11811 0z" fill-rule="evenodd"/><path stroke="#ffffff" stroke-width="3.0" stroke-linejoin="round" stroke-linecap="butt" d="m6.3963256 18.11811l99.11811 0l0 200.34647l-99.11811 0z" fill-rule="evenodd"/><path fill="#000000" fill-opacity="0.0" d="m6.3963256 118.291336l0 0c0 -55.324142 44.849083 -100.173225 100.17323 -100.173225l0 0c26.567589 0 52.047035 10.553934 70.83317 29.340057c18.786118 18.786125 29.340057 44.26558 29.340057 70.83317l0 0c0 55.324142 -44.849075 100.17323 -100.173225 100.17323l0 0c-55.32415 0 -100.17323 -44.84909 -100.17323 -100.17323z" fill-rule="evenodd"/><path stroke="#000000" stroke-width="1.0" stroke-linejoin="round" stroke-linecap="butt" d="m6.3963256 118.291336l0 0c0 -55.324142 44.849083 -100.173225 100.17323 -100.173225l0 0c26.567589 0 52.047035 10.553934 70.83317 29.340057c18.786118 18.786125 29.340057 44.26558 29.340057 70.83317l0 0c0 55.324142 -44.849075 100.17323 -100.173225 100.17323l0 0c-55.32415 0 -100.17323 -44.84909 -100.17323 -100.17323z" fill-rule="evenodd"/></g></svg>